<svg xmlns="http://www.w3.org/2000/svg" viewBox="0 0 1200 1200" width="1200" height="1200" role="img"><defs><linearGradient id="s246" x1="0" y1="0" x2="0.48" y2="1"><stop offset="0" stop-color="#F5E7E1"/><stop offset="1" stop-color="#D8B6A9"/></linearGradient><filter id="n246"><feTurbulence type="fractalNoise" baseFrequency=".8" numOctaves="4" stitchTiles="stitch"/><feColorMatrix type="saturate" values="0"/></filter><clipPath id="c246"><rect width="1200" height="1200"/></clipPath></defs><rect width="1200" height="1200" fill="url(#s246)"/><g clip-path="url(#c246)"><circle cx="615.4044473022223" cy="552" r="360" fill="#F5E7E1" opacity=".5"/><g opacity="0.34"><path d="M1272 -43Q1185 265 1193 587" fill="none" stroke="#4A5540" stroke-width="3.4" stroke-linecap="round"/><path transform="translate(1249 43) rotate(57)" d="M0 0C27.351234581144336 -32.937836457850814 70.3317460657997 -32.937836457850814 97.68298064694405 0C70.3317460657997 32.937836457850814 27.351234581144336 32.937836457850814 0 0Z" fill="none" fill-opacity=".3" stroke="#4A5540" stroke-width="2.6" stroke-linejoin="round"/><path transform="translate(1249 43) rotate(57)" d="M0 0H97" fill="none" stroke="#4A5540" stroke-width="1.4" opacity=".6"/><path transform="translate(1231 130) rotate(136)" d="M0 0C28.087676254360737 -30.385108592306505 72.22545322549902 -30.385108592306505 100.31312947985977 0C72.22545322549902 30.385108592306505 28.087676254360737 30.385108592306505 0 0Z" fill="#4A5540" fill-opacity=".3" stroke="#4A5540" stroke-width="2.6" stroke-linejoin="round"/><path transform="translate(1231 130) rotate(136)" d="M0 0H100" fill="none" stroke="#4A5540" stroke-width="1.4" opacity=".6"/><path transform="translate(1216 218) rotate(61)" d="M0 0C19.43338415672058 -23.218050944215058 49.97155926013863 -23.218050944215058 69.40494341685921 0C49.97155926013863 23.218050944215058 19.43338415672058 23.218050944215058 0 0Z" fill="none" fill-opacity=".3" stroke="#4A5540" stroke-width="2.6" stroke-linejoin="round"/><path transform="translate(1216 218) rotate(61)" d="M0 0H69" fill="none" stroke="#4A5540" stroke-width="1.4" opacity=".6"/><path transform="translate(1204 306) rotate(147)" d="M0 0C24.35295449688745 -32.29779018975614 62.62188299199629 -32.29779018975614 86.97483748888374 0C62.62188299199629 32.29779018975614 24.35295449688745 32.29779018975614 0 0Z" fill="#4A5540" fill-opacity=".3" stroke="#4A5540" stroke-width="2.6" stroke-linejoin="round"/><path transform="translate(1204 306) rotate(147)" d="M0 0H86" fill="none" stroke="#4A5540" stroke-width="1.4" opacity=".6"/><path transform="translate(1197 395) rotate(36)" d="M0 0C24.302551807671193 -28.206576081949287 62.49227607686878 -28.206576081949287 86.79482788453997 0C62.49227607686878 28.206576081949287 24.302551807671193 28.206576081949287 0 0Z" fill="none" fill-opacity=".3" stroke="#4A5540" stroke-width="2.6" stroke-linejoin="round"/><path transform="translate(1197 395) rotate(36)" d="M0 0H86" fill="none" stroke="#4A5540" stroke-width="1.4" opacity=".6"/><path transform="translate(1193 484) rotate(143)" d="M0 0C21.941564319858728 -30.21562186002562 56.421165393922436 -30.21562186002562 78.36272971378116 0C56.421165393922436 30.21562186002562 21.941564319858728 30.21562186002562 0 0Z" fill="#4A5540" fill-opacity=".3" stroke="#4A5540" stroke-width="2.6" stroke-linejoin="round"/><path transform="translate(1193 484) rotate(143)" d="M0 0H78" fill="none" stroke="#4A5540" stroke-width="1.4" opacity=".6"/></g><g opacity="0.42"><path d="M1246 129Q1064 471 917 828" fill="none" stroke="#4A5540" stroke-width="3.4" stroke-linecap="round"/><path transform="translate(1196 225) rotate(71)" d="M0 0C27.68279178794864 -35.19083164509813 71.18432174043934 -35.19083164509813 98.86711352838799 0C71.18432174043934 35.19083164509813 27.68279178794864 35.19083164509813 0 0Z" fill="none" fill-opacity=".3" stroke="#4A5540" stroke-width="2.6" stroke-linejoin="round"/><path transform="translate(1196 225) rotate(71)" d="M0 0H98" fill="none" stroke="#4A5540" stroke-width="1.4" opacity=".6"/><path transform="translate(1137 341) rotate(167)" d="M0 0C22.40749016407869 -31.17089849629675 57.61926042191663 -31.17089849629675 80.02675058599532 0C57.61926042191663 31.17089849629675 22.40749016407869 31.17089849629675 0 0Z" fill="#4A5540" fill-opacity=".3" stroke="#4A5540" stroke-width="2.6" stroke-linejoin="round"/><path transform="translate(1137 341) rotate(167)" d="M0 0H80" fill="none" stroke="#4A5540" stroke-width="1.4" opacity=".6"/><path transform="translate(1081 458) rotate(73)" d="M0 0C21.314755572994635 -29.235736944270496 54.809371473414764 -29.235736944270496 76.1241270464094 0C54.809371473414764 29.235736944270496 21.314755572994635 29.235736944270496 0 0Z" fill="none" fill-opacity=".3" stroke="#4A5540" stroke-width="2.6" stroke-linejoin="round"/><path transform="translate(1081 458) rotate(73)" d="M0 0H76" fill="none" stroke="#4A5540" stroke-width="1.4" opacity=".6"/><path transform="translate(1026 576) rotate(177)" d="M0 0C22.58310110078298 -28.910930627806945 58.07083140201337 -28.910930627806945 80.65393250279635 0C58.07083140201337 28.910930627806945 22.58310110078298 28.910930627806945 0 0Z" fill="#4A5540" fill-opacity=".3" stroke="#4A5540" stroke-width="2.6" stroke-linejoin="round"/><path transform="translate(1026 576) rotate(177)" d="M0 0H80" fill="none" stroke="#4A5540" stroke-width="1.4" opacity=".6"/><path transform="translate(973 694) rotate(64)" d="M0 0C21.117828004247478 -29.080863627952965 54.30298629663637 -29.080863627952965 75.42081430088385 0C54.30298629663637 29.080863627952965 21.117828004247478 29.080863627952965 0 0Z" fill="none" fill-opacity=".3" stroke="#4A5540" stroke-width="2.6" stroke-linejoin="round"/><path transform="translate(973 694) rotate(64)" d="M0 0H75" fill="none" stroke="#4A5540" stroke-width="1.4" opacity=".6"/></g><g opacity="0.35"><path d="M1186 46Q945 180 799 414" fill="none" stroke="#A9895B" stroke-width="3.4" stroke-linecap="round"/><path transform="translate(1120 86) rotate(96)" d="M0 0C28.809104709612463 -34.18128513431808 74.0805549675749 -34.18128513431808 102.88965967718735 0C74.0805549675749 34.18128513431808 28.809104709612463 34.18128513431808 0 0Z" fill="none" fill-opacity=".3" stroke="#A9895B" stroke-width="2.6" stroke-linejoin="round"/><path transform="translate(1120 86) rotate(96)" d="M0 0H102" fill="none" stroke="#A9895B" stroke-width="1.4" opacity=".6"/><path transform="translate(1067 123) rotate(179)" d="M0 0C20.859760651218714 -24.528253135653845 53.639384531705254 -24.528253135653845 74.49914518292397 0C53.639384531705254 24.528253135653845 20.859760651218714 24.528253135653845 0 0Z" fill="#A9895B" fill-opacity=".3" stroke="#A9895B" stroke-width="2.6" stroke-linejoin="round"/><path transform="translate(1067 123) rotate(179)" d="M0 0H74" fill="none" stroke="#A9895B" stroke-width="1.4" opacity=".6"/><path transform="translate(1017 162) rotate(92)" d="M0 0C18.433425061151297 -23.717359717075574 47.400235871531905 -23.717359717075574 65.8336609326832 0C47.400235871531905 23.717359717075574 18.433425061151297 23.717359717075574 0 0Z" fill="none" fill-opacity=".3" stroke="#A9895B" stroke-width="2.6" stroke-linejoin="round"/><path transform="translate(1017 162) rotate(92)" d="M0 0H65" fill="none" stroke="#A9895B" stroke-width="1.4" opacity=".6"/><path transform="translate(969 205) rotate(176)" d="M0 0C19.095507057017088 -20.778096368927844 49.102732432329645 -20.778096368927844 68.19823948934673 0C49.102732432329645 20.778096368927844 19.095507057017088 20.778096368927844 0 0Z" fill="#A9895B" fill-opacity=".3" stroke="#A9895B" stroke-width="2.6" stroke-linejoin="round"/><path transform="translate(969 205) rotate(176)" d="M0 0H68" fill="none" stroke="#A9895B" stroke-width="1.4" opacity=".6"/><path transform="translate(924 251) rotate(79)" d="M0 0C20.766016441628427 -23.251503530978496 53.3983279927588 -23.251503530978496 74.16434443438723 0C53.3983279927588 23.251503530978496 20.766016441628427 23.251503530978496 0 0Z" fill="none" fill-opacity=".3" stroke="#A9895B" stroke-width="2.6" stroke-linejoin="round"/><path transform="translate(924 251) rotate(79)" d="M0 0H74" fill="none" stroke="#A9895B" stroke-width="1.4" opacity=".6"/><path transform="translate(881 299) rotate(199)" d="M0 0C20.396323364124477 -28.365748031793913 52.44768865060579 -28.365748031793913 72.84401201473027 0C52.44768865060579 28.365748031793913 20.396323364124477 28.365748031793913 0 0Z" fill="#A9895B" fill-opacity=".3" stroke="#A9895B" stroke-width="2.6" stroke-linejoin="round"/><path transform="translate(881 299) rotate(199)" d="M0 0H72" fill="none" stroke="#A9895B" stroke-width="1.4" opacity=".6"/><path transform="translate(842 350) rotate(90)" d="M0 0C20.139587584974443 -22.73859870318954 51.78751093279141 -22.73859870318954 71.92709851776586 0C51.78751093279141 22.73859870318954 20.139587584974443 22.73859870318954 0 0Z" fill="none" fill-opacity=".3" stroke="#A9895B" stroke-width="2.6" stroke-linejoin="round"/><path transform="translate(842 350) rotate(90)" d="M0 0H71" fill="none" stroke="#A9895B" stroke-width="1.4" opacity=".6"/></g><g opacity="0.43"><path d="M1291 27Q1084 232 794 263" fill="none" stroke="#4A5540" stroke-width="3.4" stroke-linecap="round"/><path transform="translate(1231 81) rotate(112)" d="M0 0C29.471375695662235 -33.101620522121536 75.78353750313146 -33.101620522121536 105.25491319879369 0C75.78353750313146 33.101620522121536 29.471375695662235 33.101620522121536 0 0Z" fill="none" fill-opacity=".3" stroke="#4A5540" stroke-width="2.6" stroke-linejoin="round"/><path transform="translate(1231 81) rotate(112)" d="M0 0H105" fill="none" stroke="#4A5540" stroke-width="1.4" opacity=".6"/><path transform="translate(1184 117) rotate(214)" d="M0 0C27.41676974308984 -33.054657802504536 70.50026505365958 -33.054657802504536 97.91703479674942 0C70.50026505365958 33.054657802504536 27.41676974308984 33.054657802504536 0 0Z" fill="#4A5540" fill-opacity=".3" stroke="#4A5540" stroke-width="2.6" stroke-linejoin="round"/><path transform="translate(1184 117) rotate(214)" d="M0 0H97" fill="none" stroke="#4A5540" stroke-width="1.4" opacity=".6"/><path transform="translate(1136 149) rotate(110)" d="M0 0C22.467053147570862 -29.3569946031153 57.772422379467926 -29.3569946031153 80.23947552703879 0C57.772422379467926 29.3569946031153 22.467053147570862 29.3569946031153 0 0Z" fill="none" fill-opacity=".3" stroke="#4A5540" stroke-width="2.6" stroke-linejoin="round"/><path transform="translate(1136 149) rotate(110)" d="M0 0H80" fill="none" stroke="#4A5540" stroke-width="1.4" opacity=".6"/><path transform="translate(1085 178) rotate(215)" d="M0 0C20.536554802495452 -22.941885681597423 52.80828377784544 -22.941885681597423 73.34483858034089 0C52.80828377784544 22.941885681597423 20.536554802495452 22.941885681597423 0 0Z" fill="#4A5540" fill-opacity=".3" stroke="#4A5540" stroke-width="2.6" stroke-linejoin="round"/><path transform="translate(1085 178) rotate(215)" d="M0 0H73" fill="none" stroke="#4A5540" stroke-width="1.4" opacity=".6"/><path transform="translate(1033 202) rotate(91)" d="M0 0C20.681885243712188 -25.26215798210255 53.181990626688474 -25.26215798210255 73.86387587040066 0C53.181990626688474 25.26215798210255 20.681885243712188 25.26215798210255 0 0Z" fill="none" fill-opacity=".3" stroke="#4A5540" stroke-width="2.6" stroke-linejoin="round"/><path transform="translate(1033 202) rotate(91)" d="M0 0H73" fill="none" stroke="#4A5540" stroke-width="1.4" opacity=".6"/><path transform="translate(979 223) rotate(188)" d="M0 0C23.387726653335648 -25.95514117984058 60.1398685371488 -25.95514117984058 83.52759519048445 0C60.1398685371488 25.95514117984058 23.387726653335648 25.95514117984058 0 0Z" fill="#4A5540" fill-opacity=".3" stroke="#4A5540" stroke-width="2.6" stroke-linejoin="round"/><path transform="translate(979 223) rotate(188)" d="M0 0H83" fill="none" stroke="#4A5540" stroke-width="1.4" opacity=".6"/><path transform="translate(923 239) rotate(120)" d="M0 0C20.47983745643036 -25.191359256705866 52.66243917367807 -25.191359256705866 73.14227663010843 0C52.66243917367807 25.191359256705866 20.47983745643036 25.191359256705866 0 0Z" fill="none" fill-opacity=".3" stroke="#4A5540" stroke-width="2.6" stroke-linejoin="round"/><path transform="translate(923 239) rotate(120)" d="M0 0H73" fill="none" stroke="#4A5540" stroke-width="1.4" opacity=".6"/><path transform="translate(865 252) rotate(196)" d="M0 0C21.451771048802136 -25.630117662636618 55.16169698263406 -25.630117662636618 76.6134680314362 0C55.16169698263406 25.630117662636618 21.451771048802136 25.630117662636618 0 0Z" fill="#4A5540" fill-opacity=".3" stroke="#4A5540" stroke-width="2.6" stroke-linejoin="round"/><path transform="translate(865 252) rotate(196)" d="M0 0H76" fill="none" stroke="#4A5540" stroke-width="1.4" opacity=".6"/></g><g opacity="0.53"><path d="M1154 89Q870 188 575 133" fill="none" stroke="#4A5540" stroke-width="3.4" stroke-linecap="round"/><path transform="translate(1074 114) rotate(112)" d="M0 0C30.12453298154134 -40.08775666770655 77.46308480967772 -40.08775666770655 107.58761779121906 0C77.46308480967772 40.08775666770655 30.12453298154134 40.08775666770655 0 0Z" fill="none" fill-opacity=".3" stroke="#4A5540" stroke-width="2.6" stroke-linejoin="round"/><path transform="translate(1074 114) rotate(112)" d="M0 0H107" fill="none" stroke="#4A5540" stroke-width="1.4" opacity=".6"/><path transform="translate(1014 128) rotate(226)" d="M0 0C27.95383252827918 -36.554889296316716 71.88128364414645 -36.554889296316716 99.83511617242563 0C71.88128364414645 36.554889296316716 27.95383252827918 36.554889296316716 0 0Z" fill="#4A5540" fill-opacity=".3" stroke="#4A5540" stroke-width="2.6" stroke-linejoin="round"/><path transform="translate(1014 128) rotate(226)" d="M0 0H99" fill="none" stroke="#4A5540" stroke-width="1.4" opacity=".6"/><path transform="translate(954 139) rotate(130)" d="M0 0C25.518880827833417 -34.75649166770406 65.61997927157164 -34.75649166770406 91.13886009940505 0C65.61997927157164 34.75649166770406 25.518880827833417 34.75649166770406 0 0Z" fill="none" fill-opacity=".3" stroke="#4A5540" stroke-width="2.6" stroke-linejoin="round"/><path transform="translate(954 139) rotate(130)" d="M0 0H91" fill="none" stroke="#4A5540" stroke-width="1.4" opacity=".6"/><path transform="translate(893 147) rotate(235)" d="M0 0C26.924625256767445 -37.39240804501037 69.23475066025914 -37.39240804501037 96.15937591702658 0C69.23475066025914 37.39240804501037 26.924625256767445 37.39240804501037 0 0Z" fill="#4A5540" fill-opacity=".3" stroke="#4A5540" stroke-width="2.6" stroke-linejoin="round"/><path transform="translate(893 147) rotate(235)" d="M0 0H96" fill="none" stroke="#4A5540" stroke-width="1.4" opacity=".6"/><path transform="translate(832 151) rotate(124)" d="M0 0C21.55190748990488 -26.447204623065513 55.41919068832683 -26.447204623065513 76.97109817823171 0C55.41919068832683 26.447204623065513 21.55190748990488 26.447204623065513 0 0Z" fill="none" fill-opacity=".3" stroke="#4A5540" stroke-width="2.6" stroke-linejoin="round"/><path transform="translate(832 151) rotate(124)" d="M0 0H76" fill="none" stroke="#4A5540" stroke-width="1.4" opacity=".6"/><path transform="translate(771 152) rotate(220)" d="M0 0C20.356782380603846 -23.5744985615348 52.34601183583845 -23.5744985615348 72.7027942164423 0C52.34601183583845 23.5744985615348 20.356782380603846 23.5744985615348 0 0Z" fill="#4A5540" fill-opacity=".3" stroke="#4A5540" stroke-width="2.6" stroke-linejoin="round"/><path transform="translate(771 152) rotate(220)" d="M0 0H72" fill="none" stroke="#4A5540" stroke-width="1.4" opacity=".6"/><path transform="translate(710 150) rotate(123)" d="M0 0C21.059832094231787 -22.984631097853438 54.153853956596016 -22.984631097853438 75.2136860508278 0C54.153853956596016 22.984631097853438 21.059832094231787 22.984631097853438 0 0Z" fill="none" fill-opacity=".3" stroke="#4A5540" stroke-width="2.6" stroke-linejoin="round"/><path transform="translate(710 150) rotate(123)" d="M0 0H75" fill="none" stroke="#4A5540" stroke-width="1.4" opacity=".6"/><path transform="translate(649 144) rotate(232)" d="M0 0C16.6496222753508 -20.71758470369084 42.81331442233063 -20.71758470369084 59.46293669768143 0C42.81331442233063 20.71758470369084 16.6496222753508 20.71758470369084 0 0Z" fill="#4A5540" fill-opacity=".3" stroke="#4A5540" stroke-width="2.6" stroke-linejoin="round"/><path transform="translate(649 144) rotate(232)" d="M0 0H59" fill="none" stroke="#4A5540" stroke-width="1.4" opacity=".6"/></g></g><rect x="16" y="16" width="1168" height="1168" fill="none" stroke="#4A5540" stroke-width="1.6" opacity=".25"/><rect width="1200" height="1200" filter="url(#n246)" opacity=".07"/></svg>